<svg width="37" height="29" viewBox="0 0 37 29" fill="none" xmlns="http://www.w3.org/2000/svg">
<path d="M36.9933 27.6976V1.23465L36.9938 1.23223L36.9933 1.22981V1.11617H36.9819C36.9541 0.813075 36.8159 0.531362 36.5942 0.326043C36.3725 0.120724 36.0833 0.00654446 35.783 0.00580379C35.7687 0.00580379 35.7553 0.0096721 35.7415 0.0101557H33.5617C33.5279 0.00725407 33.4949 0 33.4601 0C33.1392 0.000383962 32.8316 0.129771 32.6047 0.359779C32.3778 0.589786 32.2501 0.901633 32.2498 1.22691C32.2498 1.28349 32.2588 1.33814 32.2665 1.39279V12.5839L16.3603 3.27451C16.2469 3.16085 16.1032 3.08328 15.9468 3.05132C15.7905 3.01937 15.6284 3.03443 15.4804 3.09465C15.3324 3.15486 15.2049 3.25762 15.1138 3.39027C15.0226 3.52292 14.9717 3.67969 14.9673 3.84129H14.9644V11.2158L1.39544 3.27402C1.28202 3.16037 1.13831 3.0828 0.981972 3.05084C0.825636 3.01889 0.663496 3.03394 0.51549 3.09416C0.367485 3.15438 0.240067 3.25713 0.148907 3.38979C0.0577468 3.52244 0.00681867 3.67921 0.00238543 3.84081H0V25.1345C0.000229894 25.2996 0.0489876 25.4609 0.14005 25.5978C0.231112 25.7347 0.36035 25.841 0.511268 25.9032C0.662186 25.9653 0.82794 25.9804 0.987376 25.9466C1.14681 25.9128 1.2927 25.8316 1.40642 25.7134L14.9644 17.7784V25.135C14.9646 25.3001 15.0134 25.4614 15.1045 25.5983C15.1955 25.7352 15.3247 25.8415 15.4757 25.9036C15.6266 25.9658 15.7923 25.9809 15.9518 25.9471C16.1112 25.9133 16.2571 25.8321 16.3708 25.7139L32.2665 16.4107V27.7184H32.2727C32.2717 27.7373 32.2669 27.7547 32.2669 27.7736C32.2671 28.0985 32.3943 28.41 32.6208 28.64C32.8472 28.8699 33.1544 28.9994 33.4749 29H35.7897V28.9884C35.9486 28.9884 36.106 28.9567 36.2528 28.895C36.3997 28.8333 36.5331 28.743 36.6455 28.629C36.7579 28.5151 36.847 28.3799 36.9079 28.231C36.9687 28.0821 37 27.9226 37 27.7615C36.9995 27.7392 36.9943 27.7189 36.9933 27.6976Z" fill="#FEFEFE"/>
</svg>
