<svg width="40" height="43" viewBox="0 0 40 43" fill="none" xmlns="http://www.w3.org/2000/svg">
<path d="M40 3.58333V39.4167C40 40.367 39.6169 41.2785 38.9349 41.9505C38.253 42.6225 37.3281 43 36.3636 43H27.2727C26.3083 43 25.3834 42.6225 24.7014 41.9505C24.0195 41.2785 23.6364 40.367 23.6364 39.4167V3.58333C23.6364 2.63297 24.0195 1.72154 24.7014 1.04953C25.3834 0.377529 26.3083 0 27.2727 0H36.3636C37.3281 0 38.253 0.377529 38.9349 1.04953C39.6169 1.72154 40 2.63297 40 3.58333ZM12.7273 0H3.63636C2.67194 0 1.74702 0.377529 1.06507 1.04953C0.383116 1.72154 0 2.63297 0 3.58333V39.4167C0 40.367 0.383116 41.2785 1.06507 41.9505C1.74702 42.6225 2.67194 43 3.63636 43H12.7273C13.6917 43 14.6166 42.6225 15.2986 41.9505C15.9805 41.2785 16.3636 40.367 16.3636 39.4167V3.58333C16.3636 2.63297 15.9805 1.72154 15.2986 1.04953C14.6166 0.377529 13.6917 0 12.7273 0Z" fill="#FEFEFE"/>
</svg>
