<svg width="37" height="29" viewBox="0 0 37 29" fill="none" xmlns="http://www.w3.org/2000/svg">
<path d="M36.1809 3.0341C35.9504 3.0341 35.7429 3.13082 35.594 3.28606L22.0354 11.221V3.86493C22.0352 3.69981 21.9864 3.53852 21.8954 3.40162C21.8043 3.26472 21.6751 3.15843 21.5241 3.09631C21.3732 3.03419 21.2075 3.01907 21.048 3.05286C20.8886 3.08666 20.7427 3.16785 20.629 3.28606L4.73359 12.5891V1.28154H4.72739C4.72835 1.26268 4.73312 1.24527 4.73312 1.22641C4.73299 0.901518 4.60575 0.589944 4.37929 0.360031C4.15283 0.130118 3.84566 0.000640278 3.52515 0H1.21035V0.0116065C0.889348 0.0116065 0.58149 0.140868 0.354504 0.370955C0.127519 0.601042 0 0.913105 0 1.2385C0 1.26026 0.00524767 1.28009 0.00620183 1.30185V27.8839H0.0176518C0.0454246 28.1869 0.183655 28.4686 0.405346 28.674C0.627037 28.8793 0.916269 28.9935 1.21656 28.9942C1.23087 28.9942 1.24423 28.9903 1.25806 28.9898H3.43784C3.47172 28.9927 3.50464 29 3.53946 29C4.20738 29 4.74982 28.4506 4.74982 27.7731C4.74982 27.7165 4.74075 27.6619 4.73312 27.6072V16.4158L20.6395 25.7251C20.7529 25.8387 20.8966 25.9163 21.0529 25.9482C21.2093 25.9802 21.3714 25.9651 21.5194 25.9049C21.6674 25.8447 21.7949 25.742 21.886 25.6093C21.9772 25.4767 22.0281 25.3199 22.0325 25.1583H22.0349V17.7839L35.6045 25.7255C35.718 25.8392 35.8617 25.9168 36.018 25.9487C36.1744 25.9807 36.3365 25.9656 36.4845 25.9054C36.6325 25.8452 36.7599 25.7424 36.8511 25.6098C36.9423 25.4771 36.9932 25.3204 36.9976 25.1588H37V3.86493C37.0001 3.75584 36.9789 3.64782 36.9378 3.54702C36.8966 3.44622 36.8363 3.35463 36.7603 3.27747C36.6842 3.20032 36.5939 3.13911 36.4944 3.09735C36.395 3.0556 36.2885 3.0341 36.1809 3.0341Z" fill="#FEFEFE"/>
</svg>
