<?xml version="1.0" encoding="UTF-8"?>
<svg id="Calque_1" data-name="Calque 1" xmlns="http://www.w3.org/2000/svg" version="1.1" xmlns:xlink="http://www.w3.org/1999/xlink" viewBox="0 0 2560 2023">
  <defs>
    <style>
      .cls-1 {
        fill: url(#Dégradé_sans_nom_77);
      }

      .cls-1, .cls-2 {
        stroke-width: 0px;
      }

      .cls-2 {
        fill: url(#Dégradé_sans_nom_77-2);
      }
    </style>
    <linearGradient id="Dégradé_sans_nom_77" data-name="Dégradé sans nom 77" x1="8.6" y1="967.5" x2="1045.9" y2="967.5" gradientUnits="userSpaceOnUse">
      <stop offset="0" stop-color="#fff88f"/>
      <stop offset="1" stop-color="#fa9600"/>
    </linearGradient>
    <linearGradient id="Dégradé_sans_nom_77-2" data-name="Dégradé sans nom 77" x1="1007.3" y1="1126" x2="2550.6" y2="1126" xlink:href="#Dégradé_sans_nom_77"/>
  </defs>
  <path class="cls-1" d="M554.6,9.1c-12.9,2.1-25.1,11.4-40.9,31.2-134.9,168.9-230,373.6-283.2,609.7-2.6,11.3-4.8,20.6-4.9,20.7-.1.2-4-.4-8.7-1.2-17.8-3.1-31.9-1.4-47.4,5.9-21.2,10.1-38.8,29.1-54.9,59.6-31.4,59.6-51.6,171.3-45.6,252.5,6.4,85.9,36.5,145.3,85.3,168.4l9.8,4.6-.6,5.5c-5.4,47.1-20.8,135.9-32.4,186.5-2.6,11.7-54,192.6-55.8,196.7-.7,1.6-1.2,1.4-5.2-1.2-9.4-6.4-18.1-2.8-27.5,11.3s-21.7,40.8-26,53.9c-7.7,23.4-10.1,50.6-6.1,67.3,1.5,5.9,5.7,12.3,9.2,14,5,2.4,8.8,1.1,14.8-4.9,10.4-10.5,17.7-28.6,32.6-80.8l10.2-35.8,4.9,7.3c6.9,10,12.3,15.3,19.2,18.7,9.1,4.6,16.4,3.9,25.4-2.3,6.3-4.3,12.3-13,21.3-31.3,7.7-15.5,13.6-24.4,16.3-24.4s3.8,4.7,6,12.5c3.3,11.3,9.3,18.5,15.4,18.5,8.9,0,27.8-21,44.7-49.5,9.8-16.6,13.6-21.8,17-24.1,2.4-1.6,2.7-1.6,4.7.2,1.1,1.1,3.8,5.7,6,10.4,5.5,11.8,8.1,15,12.2,15,6,0,10.7-7.1,17.2-26l2.9-8.5.6,23c.4,17.5,1,24.5,2.3,29.4,3.1,11.2,7.7,18.5,13.8,21.7,3.6,1.9,11.8,1.8,17-.3,22.1-8.5,55.1-52.5,72.7-97,11.1-27.9,24.9-50.3,41-66.4s12.1-11.3,18.5-14.5c6.8-3.3,8.9-3.9,14.5-3.9,8.1,0,12.8,2.1,19.2,8.6,10.5,10.7,18,32.2,23,65.4,1.5,10.2,1.5,48.3,0,64-1.4,14.6-4.6,37.2-7,49.9l-1.9,9.5-12.4,17.8c-47.9,68.4-84.8,129.6-115.7,191.3-30.2,60.5-36.4,78.8-36.5,107.5,0,15.5,1.7,22.5,6.8,27.9,2.9,3.1,3.9,3.6,8.1,3.6,6.8,0,11-2.4,20-11.4s22.8-29,36-56.1c47.2-96.9,83.3-194,99.5-267.4,1.9-8.8,2.6-10.3,9.3-19.5,12.2-17.3,47.5-64,67.2-89.1,28.7-36.5,101.7-134.3,143.6-192.5,132.2-183.2,215.4-327.1,263.8-456.3,26.6-70.9,43-139.5,49.6-206.7.9-8.5,1.8-27.9,2.1-43,.5-23,.4-29-1-36.8-7.5-43.1-40.9-75.6-89.1-86.8-11.3-2.7-42.3-2.7-54.5-.1-21,4.5-43.5,14.4-62,27.5-20.3,14.2-77.1,74.8-117.5,125.2-64.5,80.6-112.5,161.9-142,240.8-9.5,25.5-13.2,45.6-12.2,66.1,1.1,22,6.8,36.3,19.7,49.1,9,9.1,17.8,14,31.8,17.7,8.6,2.3,11.6,2.6,26.7,2.7,14.5,0,18.2-.3,25.1-2.2,35.8-9.7,69.3-36.9,107.1-86.9,17-22.6,22.8-38.3,18.9-51.6-3.4-11.7-12.1-16.3-29.1-15.4-12.4.6-16,2-16,6.2s.1,3,4.5,2.8c18.8-.9,23.6-.8,26.7,1,1.8.9,3.9,3.1,4.8,4.7,3.5,6.8.6,21.6-6.5,33.2-10.2,16.6-37.6,48.8-53.8,63.4-11.1,9.9-27.2,21.3-37.4,26.5-16.8,8.5-34.9,11.9-53.3,10-32.6-3.3-51.4-17.7-58.7-45-1.6-5.9-2.1-10.7-2.1-21.6-.1-22,3.5-37.4,15.9-68.7,42.3-106.9,117.9-217.4,220.9-322.7,22.7-23.2,34.2-32.1,54.3-42.1,51.6-25.6,110.2-17.5,145.6,20.1,14.2,15.1,22.5,33.3,24.8,54.6,1.3,12-.1,52.4-2.7,77.3-13.4,127.4-63.9,261.6-158.8,422.5-43,72.9-102.2,161.1-178.1,265-29.2,40-97.9,131.6-115.5,154-9.5,12.1-28.2,36.5-41.5,54.1-13.2,17.7-24.2,32.1-24.3,32s.4-4.2,1.2-9.1c4.7-29.9,6.7-68.3,4.6-90.5-2.3-25.3-9.3-51.7-17.4-65.9-13.6-23.8-33.8-29.4-56.5-15.9-3,1.8-9.1,6.7-13.4,10.7-18.3,17.1-33,40.6-46.5,74.1-18.6,46.3-55,92-73.2,92s-10.2-5.8-12.4-13.6c-3.5-12.6-3.9-19.1-3.2-50.4l.7-30.5,9.5-28.5c22.3-67.2,35.8-117.9,46.7-176,6.2-32.6,7-49.2,3.1-58.6-5.3-12.7-16.4-13.5-27.3-2-7.2,7.6-10.7,15.3-15.2,33.7-14.4,58.3-21.8,121.4-24.6,208.4l-.7,21-7.3,21.2c-7.7,22.2-11.5,31.6-13.1,32.6-.5.3-3.1-3.8-5.6-9.2-5.5-11.7-9.8-16.1-15.5-16.1s-12.5,5-26.1,27.9c-14.1,23.5-32.5,46.1-37.7,46.1s-4.8-2.7-8.4-13.5c-3.5-10.3-6.4-15-10.2-16.6-7.9-3.3-14.2,3.5-27.3,29.1-7.8,15.4-11,20.6-15.1,24.7-8.8,8.9-16.6,9.2-25.8,1.2-5.5-4.8-12.3-14.2-16.1-21.9l-2.6-5.5,28-97.5c15.4-53.7,29.8-105.6,32-115.5,9.8-44.3,19.9-101.4,27.3-154.2,4.1-29,4.4-30.4,6.3-29.8,13.2,3.7,36.2,4.2,51.5,1,17-3.5,27.7-8,50.5-21.3,100.4-58.3,179.9-149.5,233.9-268.4,84.7-186.1,116.3-438.1,97.1-771.3-1.9-31.4-2.9-41.3-5.1-50.1-4.8-19.4-15.3-35.1-27.4-41.4-2.7-1.4-15.1-4.5-15.4-3.9-.1.1-2.3.5-5,1ZM569.6,18.9c12.3,5.6,22.1,21.5,25.8,42.1,2.2,12.1,5.7,71.2,7.5,127,4.3,129.7.2,244.2-12.5,348-21.7,178-67.9,320.5-138.8,428-13.3,20.1-26.5,38-41.5,56-12.4,15-49.4,51.9-64.6,64.6-41.1,34.1-89.3,63.7-113.9,69.9-17,4.3-36.1,4.9-52,1.5l-5.9-1.2.6-5.6c.3-3.2,2.4-21.5,4.6-40.7,4.8-42.1,9.7-91.9,15.1-154.5,6.1-70.4,11.4-115.4,20.1-172,5.4-34.9,17.1-98.5,18.4-99.8s15.7,4.8,24,9.1c30.4,15.8,50.7,44.2,60,84.3,6.1,26.6,7.7,63.5,4.4,107.4-2.2,29.3-6.8,48-12,48s-7.8-6.2-11.4-12.4c-3.5-6.1-5.6-7.2-8.7-4.7l-2.3,2,2.5,4.8c6,11.5,13.7,18.6,20.2,18.6,14.6,0,21-28.7,21.2-95.3.1-36.4-.4-43.2-4.9-65.6-10.4-51.6-37.5-85.5-81-101.5-4.9-1.8-9.3-3.5-9.7-3.9-.8-.6,4.6-25.7,12.7-58.5,53.6-217.4,144.2-406.7,271.8-567.8,13.7-17.3,23.5-25.6,33.7-28.8,4.6-1.4,12.4-.9,16.6,1ZM214.5,677.6c5,.9,9.1,1.7,9.3,1.9s-.9,5.8-2.3,12.6c-8.7,42.6-18.2,101.1-24.5,151.4-4.9,39-7,59.3-12.1,117.5-4.7,54.8-11.5,123.4-16,162.2-2.6,21.8-3.6,27.8-4.7,27.8s-4.9-1.8-9.2-4.1c-40.4-21-66.7-69.2-75.4-138.4-5.2-40.9-4.3-82.2,3-132.5,9.7-66.7,27.5-121.4,51.1-156.8,6.7-10.1,22.3-26.2,30.5-31.5,3.1-2,9-5,13.1-6.7,12.7-5.1,22.7-6,37.2-3.4ZM351.3,1202.3c2.8,5.6,2.5,22.3-.7,40.8-4.5,25.9-11.6,58.7-18.6,86.4-10.1,39.8-30.7,106.9-30.9,100.5-.3-11.3,4-73.2,7-99,5.6-49.4,16.8-105.1,23.8-118.7,7.2-13.8,15.5-18.1,19.4-10ZM68,1557.1c2.5,2.6,3.8,4.8,3.5,5.8-.3.9-5.8,20.3-12.4,43.1-6.5,22.8-13.3,45-15,49.3-7.3,18.3-15.8,31.7-20.1,31.7s-7.4-13.6-6.7-31c1-23.5,6-41,19.2-68,12.7-25.7,19.5-35,25.8-35s3.5,1.9,5.7,4.1ZM494.9,1618.1c-17,65.4-48.7,147.8-89.9,233.9-14.6,30.4-26.4,48.7-39.1,60.4-6.2,5.8-10.1,7.6-12.8,5.9-6.7-4.1-6.8-33.9-.2-57.5,3-10.7,13.4-33.9,30.2-67.8,20.1-40.3,36.8-70.2,61.8-110.4,17.5-28.1,52.9-81.1,53.7-80.3s-1.5,7.3-3.7,15.8Z"/>
  <path class="cls-2" d="M2411,238.1c-46.9,2.4-105.6,17.5-176.5,45.4-44.1,17.4-61.3,25.7-106,51.3-114,65.4-222.5,151.7-278.1,221.2-37.9,47.4-61.4,104-61.4,147.8s5.3,38.9,13.3,53.2c5.3,9.4,19.5,24,28.7,29.3,16.7,9.6,31.1,13.2,54,13.2s43.9-4.3,70.2-15c21.1-8.7,32.5-15.4,48.5-28.9,39.5-33,71.1-83.7,78.9-126.7,2.3-12.8,2.4-31.2,0-41.4-.9-4.4-3.8-12.3-6.3-17.5-3.9-8.2-5.8-10.7-13.7-18.5-6.7-6.7-11.2-10.1-17.2-13.3-8-4.1-8.2-4.2-10.4-2.4-3.4,2.8-1.9,5.2,6.2,9.7,4,2.2,10.8,7.3,15.1,11.4,6.4,6.1,8.6,9,12.3,16.5,6.2,12.7,7.7,20.7,7.1,38.1-.8,20.7-5.1,36.2-16.7,60-11.9,24.5-27.9,46.4-48.7,66.5-23.2,22.5-40.8,33.2-72.9,44.1-29,9.8-56.5,12-79.4,6.3-3.6-.9-11-3.7-16.5-6.4-22.1-10.6-37-30.9-41.9-56.9-2.1-10.8-2.1-33-.1-44.7,6.1-35.3,23.7-73.8,50.1-109.4,57.2-77.4,185.6-177.6,319-248.9,41.3-22,111.7-48.8,164.4-62.5,36.2-9.5,61.1-13,91.5-13,25.5-.1,35.6,1.2,51.9,6.5,67.4,22.1,83.9,97,48.1,218.6-14,47.4-38.5,107.4-60.5,148.4-34.2,63.5-84.1,135.7-160.2,231.8-27.8,35.1-98.5,110.2-160.3,170.5-54.9,53.5-100.2,96-188.5,177.1-147,134.8-200.4,185.2-260.4,245.3l-31.9,32-4.4-3.2c-4-2.8-5.2-3.1-11.6-3.1-9.8.1-16.6,3.5-27.3,13.8-10.7,10.2-18.7,21.6-28,40.1-4.2,8.3-9.1,17.1-10.7,19.6-11.9,17.5-26.1,26.8-36.7,24-8.6-2.3-15.9-12.3-19.9-27.2-3.9-14.3-4.4-23.1-3.7-63.7.4-21.2,1-38.9,1.2-39.3.3-.5,12.1-6.7,26.3-13.7,99.8-50,176.6-97.1,226.6-138.9,13.7-11.5,35.1-33.5,43.7-44.9,17.7-23.6,24.8-41.2,24.8-61.8s-7.8-38.9-25.9-57.8c-27.4-28.6-66.2-50.4-172.1-96.5-33.6-14.6-58.3-25.8-69.8-31.6-13.6-6.8-71.3-28-125.7-46.1-47.1-15.7-89.6-28.2-129.9-38-9.8-2.4-18.1-4.6-18.4-4.9s3.2-12.8,7.6-27.8c11.8-39.8,21.3-73.5,29.7-105.7,4.1-15.6,7.6-28.6,7.9-28.8,1.4-1.4,71.6-20.6,109.1-29.8,57.7-14.1,141.5-31.9,222-47,13.8-2.6,25.6-5.2,26.3-5.7,1.8-1.5,1.5-5.6-.5-6.6s-14.9,1.3-88.3,15.9c-97.9,19.5-181.5,39-245.8,57.6-10.6,3.1-19.5,5.3-19.9,5-.3-.4,1.4-8.8,3.7-18.9,19.6-85.2,25.7-143.2,17-163.2-4-9.4-11.8-12-20.9-7-6.2,3.3-17.4,14.9-25.4,26.1-24.2,33.9-61.6,110.2-93.6,190.5l-6.3,15.7-7.1,2.7c-41.6,15.7-105.7,45.4-147.7,68.4-21.6,11.8-56,32.2-59.7,35.4-2.7,2.4-2.6,5.9.2,7,.9.3,7.7,0,15.3-.6,18.7-1.5,85.7-1.5,106.7,0s47.8,4.2,48.3,4.7c.2.1-4.2,13.3-9.6,29.1-24.2,70.5-32.1,98.3-43.6,152.2-17.3,81-25.9,148.5-27.3,213.7-2.4,113.4,22.2,191.4,72.1,228.6,9.4,7,28.7,16.9,37.9,19.4l6.4,1.7,2.5,12.7c5.1,25.4,13.9,40.5,25.1,43.1,8.3,1.8,16.4-3.1,23.6-14.5,4.6-7.2,9.9-19.5,13-30.2,2.1-7.1,2.2-7.2,5.9-7.8,13.4-2.2,27-4.9,35-7,5.2-1.4,11.3-2.5,13.6-2.5s5.4-.8,7.6-2.3c1.9-1.3,7.1-3.6,11.5-5.2,14.5-5.1,37.8-14.7,51.1-21l13.2-6.2,2.1,11.4c2.9,15.3,5.5,21.9,10.6,27,3.2,3.3,5,4.3,7.4,4.3,12.7,0,25.1-17.5,47.2-66.8l7.7-17.3,9.7-6.1c5.3-3.3,9.8-5.8,10.1-5.6.2.3-.1,14.4-.7,31.4s-.8,35.2-.4,40.4c1.8,25.5,7.4,43.5,16.8,53.7,15.8,17.1,39.9,9.7,58.7-18.2,2.6-3.9,7.8-13.1,11.5-20.5,8.1-16.3,15.6-27.8,23.4-35.8,11.1-11.3,21.1-16.4,28.1-14.3,7.9,2.3,7.9,2.4-11.6,22.9-94,98.3-158.6,177.2-214.9,262.2-30.4,45.8-49.1,78.1-71.6,123.5-20.7,42-25.5,58.4-24.6,84.5.6,20.4,4.9,31,15.2,38.2,14.6,10.2,37.8,1.3,63.4-24.2,69.6-69.1,170-222.2,233.6-355.9,11.8-24.8,15.3-34.5,22-60.6,8.7-33.8,11.1-63.4,6.6-80.3l-1.2-4.3,8.3-9c4.5-5,24.2-24.7,43.8-43.7,69.8-68.2,102.8-99.1,231.5-217.1,177.3-162.7,262.7-246.6,338.1-332.1,29.2-33.1,85.7-107.4,122.1-160.5,47.8-69.9,75.3-121.3,102.2-191.1,17.7-46,29.4-87.8,35.3-125.4,3-19.8,3.3-63.5.5-77.4-13.3-65.3-57.9-94.6-137.7-90.5ZM1360.9,549.6c3.2,4.1,4.5,12.6,4.4,29.4-.2,30.5-8.1,79.1-23.3,142.6l-3.1,13.2-6.2,1.7c-11.6,3.3-49.2,15.7-73,24.2-13.1,4.7-24.1,8.3-24.3,8-.5-.4,9.6-25.6,20.4-50.8,27.5-64.2,54-115.8,74.4-144.6s22.5-26.2,27.5-26.3c.6,0,2.1,1.2,3.2,2.6ZM1333,758.1c-5.2,20.5-12.6,47.6-22.1,80.4-15,52.2-18.4,63-20,62.9-.8-.1-13.1-2.5-27.4-5.3s-36-6.7-48.3-8.5c-12.2-1.8-22.5-3.6-22.8-3.8-.6-.6,15-43.8,28.6-79.4l9.2-24.1,20.6-7.5c11.4-4.2,33.3-11.8,48.7-16.8,36.7-12,36-11.8,36.3-11,.2.4-1.1,6.3-2.8,13.1ZM1219,785.5c0,.2-3.2,8.9-7.1,19.2-4,10.3-12,32.1-17.9,48.3l-10.8,29.5-4.4-.2c-2.3-.1-11.9-.8-21.3-1.7-31.5-2.9-58.4-3.9-93.8-3.4l-34.8.5,11.8-7c44.1-26.1,97.2-52.4,153.3-75.8,22.9-9.6,25-10.4,25-9.4ZM1225,897.6c15.7,2.6,46,8.3,58.2,11l6.6,1.5-1.8,5.7c-10.6,32.7-27.4,86.8-29.4,94.7-19.6,79-33.9,212-41,382.5-2.7,62.7-3.9,109.2-3.2,121.9l.6,12.3-2.7-.7c-1.6-.3-6.6-2.2-11.2-4-23.1-9.4-44.8-29.1-59.3-53.8-39.5-67.4-45.1-189.8-15.8-350.1,12.5-68.1,21.3-102.5,42.8-167.1,9.9-29.7,18.5-55.2,19-56.6l1-2.6,10.4,1.4c5.7.8,17.3,2.5,25.8,3.9ZM1323,918c48.4,12,99.6,27.6,162.5,49.7,27.1,9.5,72.6,26.2,73.4,26.9.2.2-.3,1.2-1.1,2.1-5.5,6.3-12.6,29.4-18.2,59.3-10.9,57.9-16.9,132.8-23.6,297.9l-1.1,26.5-7.4,17c-4,9.4-10.3,24.3-14,33.1s-7.2,16.5-7.7,17.2c-2.2,2.8-59.5,34.9-60.5,34-.3-.3-1.1-9.9-1.9-21.4-3.1-47.7-6.5-63.4-14.8-67.8-2.9-1.6-3.8-1.7-6.5-.5-8.7,3.5-15.1,15.9-32.5,62.3-13.9,36.9-23.6,57.8-29.3,62.9-1.8,1.7-7.3,3.5-7.3,2.5s-.7-3.2-1.7-6.4c-1.4-5-1.7-14.6-2.4-69.8-.7-64.8-1.2-74.5-4.7-81.5-1.8-3.7-3.8-4.6-7.7-3.6-7.3,1.8-17,40.2-33,130.4-8,45.2-7.2,42.4-12,43.5-5,1.1-32.9.2-41.2-1.3-5.4-1-6.2-1.5-6.8-3.8-1-4-.8-47.4.5-82.7,6.2-180.3,18.1-312.8,36.1-401.5,5.7-27.8,8.9-40,18.4-69.5,4.6-14.3,10.6-33.4,13.4-42.5,2.9-9.1,5.4-17.1,5.6-17.8.3-.7,1.4-1,2.7-.7,1.3.2,11.5,2.8,22.8,5.5ZM1640,1031.1c72.4,31.8,98.5,44.3,123.5,59.3,62.4,37.6,82.8,73.6,65.5,115.6-23.2,56.3-116.8,125.8-280.6,208.4-13.7,6.9-25.4,12.6-25.8,12.6s-.5-10-.1-22.3l.7-22.2,4.8-10.5c13.1-28.9,22.3-59.4,28.4-94,6.6-37.3,17.1-145.9,19.7-203.5,1.4-30.8.3-59.1-2.7-71.1-.6-2.2.6-1.8,14.7,4.7,8.5,3.9,31.8,14.3,51.9,23ZM1566,1008.7c1.8,8.5,2.4,53,1.1,78.7-3.1,57.3-13.5,160-19.7,193.6-4.4,23.9-14.5,59.2-21.3,74l-2,4.5.5-9c.2-5,.9-20.5,1.4-34.5,6-149.1,14.8-237.7,28.6-289,2.8-10.3,8.1-24,9.4-24s1.3,2.6,2,5.7ZM1319.5,1380c.4,3.6,1,34.4,1.5,68.5.6,52.8,1,62.8,2.4,67.5.8,3,1.6,5.8,1.6,6.1,0,.9-15,4.6-27.9,7-13,2.4-13.5,2.4-12.7.2.4-1,3.4-16.7,6.7-35,10.8-60.6,17.6-93.5,22.9-111.9,1.6-5.8,3-10.8,3-11.2.1-2.7,1.9,3.5,2.5,8.8ZM1407.3,1403.8c2.3,5.8,4.5,17.3,5.7,30.2,1.3,14.2,4,52.3,3.7,52.6-1.7,1.6-42.2,19.2-56.9,24.8l-6.8,2.5,5.1-10.1c6-11.9,12.2-26.9,19.4-46.8,7.5-20.6,12.9-33.9,17.4-42.9,3.9-7.6,8.5-14.1,10.1-14.1s1.5,1.7,2.3,3.8ZM1513.5,1423.7l-.7,8.1-7,4.1c-5.1,2.9-6.8,3.6-6.4,2.3.4-.9,3.7-8.9,7.4-17.6l6.7-16,.3,5.5c.2,2.9.1,9.1-.3,13.6ZM1477.7,1467.2c-4.5,10.9-18.8,39-23.7,46.7-4.8,7.5-12.8,16.1-14.9,16.1s-5.1-4.4-7-9.4c-1.7-4.7-4.1-15.4-5.6-25.2l-.6-4.2,8.3-4.2c10.9-5.6,42-22.9,43.3-24.1,2.2-2.1,2.3-.6.2,4.3ZM1661.4,1512c0,18-1.2,26.9-6.9,50.5-7.9,32.8-13.1,46-36.6,92.5-64.9,128.6-152.8,259.8-217.5,324.6-34.4,34.4-58.7,35.1-64.5,1.9-2.6-15.3,1.2-40.9,9.1-60,5.7-13.7,31.4-64.1,43.1-84.5,58.8-102.7,135.5-201.9,247.7-320.3,20.7-21.9,23.7-24.7,24.6-23,.7,1.1,1.1,8.1,1,18.3ZM1252.8,1540.6c11.1.4,20.2.8,20.2.9,0,1.7-7.9,22.4-10.3,27-4.6,8.6-11.5,15.5-15.5,15.5-8.7,0-17.4-16.5-21.8-41.4l-.7-3.9,3.9.7c2.2.3,13,.9,24.2,1.2Z"/>
</svg>